HIERARCHY
ROOT hip
{
  OFFSET 0 0 0
  CHANNELS 6 Xposition Yposition Zposition Zrotation Yrotation Xrotation
  JOINT abdomen
  {
    OFFSET 0 20.6881 -0.73152
    CHANNELS 3 Zrotation Xrotation Yrotation
    JOINT chest
    {
      OFFSET 0 11.7043 -0.48768
      CHANNELS 3 Zrotation Xrotation Yrotation
      JOINT neck
      {
        OFFSET 0 22.1894 -2.19456
        CHANNELS 3 Zrotation Xrotation Yrotation
        JOINT head
        {
          OFFSET -0.24384 7.07133 1.2192
          CHANNELS 3 Zrotation Xrotation Yrotation
          JOINT leftEye
          {
            OFFSET 4.14528 8.04674 8.04672
            CHANNELS 3 Zrotation Xrotation Yrotation
            End Site
            {
              OFFSET 1 0 0
            }
          }
          JOINT rightEye
          {
            OFFSET -3.6576 8.04674 8.04672
            CHANNELS 3 Zrotation Xrotation Yrotation
            End Site
            {
              OFFSET 1 0 0
            }
          }
        }
      }
      JOINT rCollar
      {
        OFFSET -2.68224 19.2634 -4.8768
        CHANNELS 3 Zrotation Xrotation Yrotation
        JOINT rShldr
        {
          OFFSET -8.77824 -1.95073 1.46304
          CHANNELS 3 Zrotation Xrotation Yrotation
          JOINT rForeArm
          {
            OFFSET -28.1742 -1.7115 0.48768
            CHANNELS 3 Zrotation Xrotation Yrotation
            JOINT rHand
            {
              OFFSET -22.5879 0.773209 7.07136
              CHANNELS 3 Zrotation Xrotation Yrotation
              JOINT rThumb1
              {
                OFFSET -1.2192 -0.487915 3.41376
                CHANNELS 3 Zrotation Xrotation Yrotation
                JOINT rThumb2
                {
                  OFFSET -3.37035 -0.52449 3.41376
                  CHANNELS 3 Zrotation Xrotation Yrotation
                  End Site
                  {
                    OFFSET -1.78271 -1.18214 1.43049
                  }
                }
              }
              JOINT rIndex1
              {
                OFFSET -7.75947 0.938293 5.60832
                CHANNELS 3 Zrotation Xrotation Yrotation
                JOINT rIndex2
                {
                  OFFSET -2.54057 -0.884171 1.56538
                  CHANNELS 3 Zrotation Xrotation Yrotation
                  End Site
                  {
                    OFFSET -1.62519 -0.234802 1.16502
                  }
                }
              }
              JOINT rMid1
              {
                OFFSET -8.24714 1.18213 3.41376
                CHANNELS 3 Zrotation Xrotation Yrotation
                JOINT rMid2
                {
                  OFFSET -3.10165 -0.590103 1.0647
                  CHANNELS 3 Zrotation Xrotation Yrotation
                  End Site
                  {
                    OFFSET -2.48547 -0.328903 0.83742
                  }
                }
              }
              JOINT rRing1
              {
                OFFSET -8.82822 0.546677 1.51678
                CHANNELS 3 Zrotation Xrotation Yrotation
                JOINT rRing2
                {
                  OFFSET -2.60934 -0.819778 -0.0198488
                  CHANNELS 3 Zrotation Xrotation Yrotation
                  End Site
                  {
                    OFFSET -2.33842 -0.294052 0.168128
                  }
                }
              }
              JOINT rPinky1
              {
                OFFSET -8.27202 -0.0477905 -0.4584
                CHANNELS 3 Zrotation Xrotation Yrotation
                JOINT rPinky2
                {
                  OFFSET -1.82734 -0.647385 -0.700984
                  CHANNELS 3 Zrotation Xrotation Yrotation
                  End Site
                  {
                    OFFSET -1.69225 -0.51767 -0.607171
                  }
                }
              }
            }
          }
        }
      }
      JOINT lCollar
      {
        OFFSET 2.68224 19.2634 -4.8768
        CHANNELS 3 Zrotation Xrotation Yrotation
        JOINT lShldr
        {
          OFFSET 8.77824 -1.95073 1.46304
          CHANNELS 3 Zrotation Xrotation Yrotation
          JOINT lForeArm
          {
            OFFSET 28.1742 -1.7115 0.48768
            CHANNELS 3 Zrotation Xrotation Yrotation
            JOINT lHand
            {
              OFFSET 22.5879 0.773209 7.07136
              CHANNELS 3 Zrotation Xrotation Yrotation
              JOINT lThumb1
              {
                OFFSET 1.2192 -0.487915 3.41376
                CHANNELS 3 Zrotation Xrotation Yrotation
                JOINT lThumb2
                {
                  OFFSET 3.37035 -0.52449 3.41376
                  CHANNELS 3 Zrotation Xrotation Yrotation
                  End Site
                  {
                    OFFSET 1.78271 -1.18214 1.43049
                  }
                }
              }
              JOINT lIndex1
              {
                OFFSET 7.75947 0.938293 5.60832
                CHANNELS 3 Zrotation Xrotation Yrotation
                JOINT lIndex2
                {
                  OFFSET 2.54057 -0.884171 1.56538
                  CHANNELS 3 Zrotation Xrotation Yrotation
                  End Site
                  {
                    OFFSET 1.62519 -0.234802 1.16502
                  }
                }
              }
              JOINT lMid1
              {
                OFFSET 8.24714 1.18213 3.41376
                CHANNELS 3 Zrotation Xrotation Yrotation
                JOINT lMid2
                {
                  OFFSET 3.10165 -0.590103 1.0647
                  CHANNELS 3 Zrotation Xrotation Yrotation
                  End Site
                  {
                    OFFSET 2.48547 -0.328903 0.83742
                  }
                }
              }
              JOINT lRing1
              {
                OFFSET 8.82822 0.546677 1.51678
                CHANNELS 3 Zrotation Xrotation Yrotation
                JOINT lRing2
                {
                  OFFSET 2.60934 -0.819778 -0.0198488
                  CHANNELS 3 Zrotation Xrotation Yrotation
                  End Site
                  {
                    OFFSET 2.33842 -0.294052 0.168128
                  }
                }
              }
              JOINT lPinky1
              {
                OFFSET 8.27202 -0.0477905 -0.4584
                CHANNELS 3 Zrotation Xrotation Yrotation
                JOINT lPinky2
                {
                  OFFSET 1.82734 -0.647385 -0.700984
                  CHANNELS 3 Zrotation Xrotation Yrotation
                  End Site
                  {
                    OFFSET 1.69225 -0.51767 -0.607171
                  }
                }
              }
            }
          }
        }
      }
    }
  }
  JOINT rButtock
  {
    OFFSET -8.77824 4.35084 1.2192
    CHANNELS 3 Zrotation Xrotation Yrotation
    JOINT rThigh
    {
      OFFSET 0 -1.70687 -2.19456
      CHANNELS 3 Zrotation Xrotation Yrotation
      JOINT rShin
      {
        OFFSET 0 -36.8199 0.73152
        CHANNELS 3 Zrotation Xrotation Yrotation
        JOINT rFoot
        {
          OFFSET 0.73152 -45.1104 -5.12064
          CHANNELS 3 Zrotation Xrotation Yrotation
          End Site
          {
            OFFSET -1.1221 -3.69964 12.103
          }
        }
      }
    }
  }
  JOINT lButtock
  {
    OFFSET 8.77824 4.35084 1.2192
    CHANNELS 3 Zrotation Xrotation Yrotation
    JOINT lThigh
    {
      OFFSET 0 -1.70687 -2.19456
      CHANNELS 3 Zrotation Xrotation Yrotation
      JOINT lShin
      {
        OFFSET 0 -36.8199 0.73152
        CHANNELS 3 Zrotation Xrotation Yrotation
        JOINT lFoot
        {
          OFFSET -0.73152 -45.1104 -5.12064
          CHANNELS 3 Zrotation Xrotation Yrotation
          End Site
          {
            OFFSET 1.1221 -3.69964 12.103
          }
        }
      }
    }
  }
}
MOTION
Frames:	4
Frame Time:	0.00833333
62.7329 84.3981 83.8092 6.6689 -4.1259 11.8676 -2.38564 12.1197 0.885625 1.55293 -4.12447 0.19874 -0.702844 13.8005 -2.00415 3.18397 -46.3403 -2.85887 -0.0 0.0 0.0 -0.0 0.0 0.0 1.61766e-13 1.51369e-14 -2.44063e-14 68.1404 -10.8947 -20.3891 -5.59695 -1.86587 9.7674 -2.0701 37.2473 6.13436 -1.26341e-09 -6.60768e-10 -9.49715e-11 -2.18066e-09 -1.12579e-09 -1.27746e-10 -1.26341e-09 -6.60764e-10 -9.49877e-11 7.73091 5.47488 0.417314 -1.26342e-09 -6.60766e-10 -9.4969e-11 2.90554 0.965183 0.102902 -1.26341e-09 -6.60767e-10 -9.49729e-11 10.2786 0.731801 0.0259123 -1.26341e-09 -6.60766e-10 -9.49708e-11 2.22167 -0.733487 -0.20892 1.61715e-13 1.51281e-14 -2.46268e-14 -72.9676 28.1802 6.96687 3.02298 -0.87506 -5.22903 0.139836 10.5834 -1.50503 7.23904e-11 1.22775e-10 -1.53078e-09 1.11206e-10 2.14002e-10 -2.64507e-09 7.23845e-11 1.22774e-10 -1.53076e-09 -7.73091 5.47488 -0.417314 7.23916e-11 1.22773e-10 -1.53078e-09 -2.90554 0.965183 -0.102902 7.23875e-11 1.22773e-10 -1.53079e-09 -10.2786 0.731801 -0.0259123 7.23922e-11 1.22774e-10 -1.53081e-09 -2.22167 -0.733487 0.20892 -2.03217e-16 0.0 -3.88251e-19 -21.8571 -32.5169 -12.4161 -0.0315747 33.6678 1.10415 1.50491 -3.92321 -3.70132 2.03217e-16 0.0 3.88251e-19 2.60265 -32.8242 4.56158 0.174869 33.7065 -1.03913 -1.32819 -2.01099 0.882562
62.8444 83.9396 83.1295 6.5222 -4.7249 12.9551 -2.26372 13.4819 1.24996 1.34573 -4.35505 0.272587 -0.561039 14.4077 -1.8957 3.02735 -49.2733 -2.66879 -0.0 0.0 0.0 -0.0 0.0 0.0 1.22439e-13 -3.83614e-14 5.01496e-14 65.5614 -14.475 -25.088 -5.46768 -1.81065 9.53699 -2.33552 39.1379 6.56579 -1.98539e-10 3.62179e-10 -1.06235e-10 -3.42785e-10 6.1101e-10 -1.83161e-10 -1.98536e-10 3.62183e-10 -1.06252e-10 7.73091 5.47488 0.417314 -1.98541e-10 3.62181e-10 -1.06233e-10 2.90554 0.965183 0.102902 -1.9853e-10 3.62181e-10 -1.06235e-10 10.2786 0.731801 0.0259123 -1.9854e-10 3.62182e-10 -1.06231e-10 2.22167 -0.733487 -0.20892 1.22431e-13 -3.83694e-14 4.99136e-14 -74.8399 27.9029 11.4805 3.06012 -0.887341 -5.29372 0.106263 9.28157 -1.31621 -3.09544e-10 -6.20402e-10 1.57916e-10 -5.38115e-10 -1.08065e-09 2.78517e-10 -3.0955e-10 -6.20406e-10 1.57941e-10 -7.73091 5.47488 -0.417314 -3.09543e-10 -6.20405e-10 1.57918e-10 -2.90554 0.965183 -0.102902 -3.09546e-10 -6.20407e-10 1.57916e-10 -10.2786 0.731801 -0.0259123 -3.09542e-10 -6.20405e-10 1.57898e-10 -2.22167 -0.733487 0.20892 -2.03217e-16 0.0 -3.88251e-19 -22.8747 -35.9444 -13.7333 -0.0847663 36.9208 1.25338 1.61844 -3.75353 -2.59067 2.03217e-16 0.0 3.88251e-19 3.18713 -36.2102 4.94271 0.210092 36.9969 -1.16118 -1.38439 -2.3341 0.704974
62.9756 83.3974 82.4516 6.4389 -5.3391 14.1399 -2.19548 14.6734 1.58789 1.14164 -4.54346 0.338247 -0.431729 15.0773 -1.79063 2.91558 -52.0341 -2.47207 -0.0 0.0 0.0 -0.0 0.0 0.0 6.13568e-14 -1.02098e-13 1.28007e-13 62.6713 -17.2364 -29.9326 -5.37956 -1.77397 9.37937 -2.56066 40.6 6.91744 8.50432e-10 1.59733e-09 1.2901e-11 1.4704e-09 2.71063e-09 -1.33882e-11 8.50438e-10 1.59734e-09 1.2884e-11 7.73091 5.47488 0.417314 8.50431e-10 1.59734e-09 1.2902e-11 2.90554 0.965183 0.102902 8.50443e-10 1.59734e-09 1.29015e-11 10.2786 0.731801 0.0259123 8.5043e-10 1.59734e-09 1.2909e-11 2.22167 -0.733487 -0.20892 6.13871e-14 -1.02104e-13 1.27762e-13 -76.758 27.4815 16.0537 3.12414 -0.909334 -5.40499 0.0795521 8.08017 -1.14313 -5.79238e-10 -1.44258e-09 1.83801e-09 -9.93942e-10 -2.51168e-09 3.18594e-09 -5.79245e-10 -1.44259e-09 1.83804e-09 -7.73091 5.47488 -0.417314 -5.79238e-10 -1.44258e-09 1.83802e-09 -2.90554 0.965183 -0.102902 -5.79239e-10 -1.44259e-09 1.83802e-09 -10.2786 0.731801 -0.0259123 -5.79236e-10 -1.44258e-09 1.838e-09 -2.22167 -0.733487 0.20892 -2.03217e-16 0.0 -3.88251e-19 -24.0706 -39.4621 -15.1189 -0.150734 40.2768 1.41626 1.72506 -3.70467 -1.49945 2.03217e-16 0.0 3.88251e-19 3.82649 -39.6311 5.3275 0.254297 40.2624 -1.29346 -1.44619 -2.66983 0.454563
63.1241 82.7716 81.7811 6.3921 -5.9042 15.3926 -2.22147 15.6936 1.87117 0.971011 -4.71421 0.387855 -0.30074 15.7018 -1.7091 2.80798 -54.4192 -2.32617 -0.0 0.0 0.0 -0.0 0.0 0.0 -1.35398e-14 -1.33581e-13 1.77415e-13 59.8434 -18.7964 -34.7761 -5.33056 -1.75358 9.29189 -2.66393 41.2281 7.07428 1.59717e-09 2.8706e-09 1.33469e-10 2.76208e-09 4.88278e-09 1.7054e-10 1.59718e-09 2.8706e-09 1.33453e-10 7.73091 5.47488 0.417314 1.59717e-09 2.8706e-09 1.33469e-10 2.90554 0.965183 0.102902 1.59718e-09 2.8706e-09 1.3347e-10 10.2786 0.731801 0.0259123 1.59717e-09 2.87061e-09 1.33478e-10 2.22167 -0.733487 -0.20892 -1.34958e-14 -1.33586e-13 1.77167e-13 -78.7194 26.954 20.6184 3.15339 -0.91949 -5.4558 0.0608604 7.02204 -0.991904 -6.69736e-10 -2.20854e-09 2.87503e-09 -1.14453e-09 -3.83978e-09 4.97989e-09 -6.69743e-10 -2.20854e-09 2.87507e-09 -7.73091 5.47488 -0.417314 -6.69737e-10 -2.20854e-09 2.87504e-09 -2.90554 0.965183 -0.102902 -6.69736e-10 -2.20855e-09 2.87504e-09 -10.2786 0.731801 -0.0259123 -6.69733e-10 -2.20854e-09 2.87503e-09 -2.22167 -0.733487 0.20892 -2.03217e-16 0.0 -3.88251e-19 -25.5381 -42.9382 -16.6304 -0.220521 43.6223 1.58448 1.82195 -3.8457 -0.548782 2.03217e-16 0.0 3.88251e-19 4.4841 -43.0211 5.70511 0.305207 43.448 -1.43315 -1.51312 -3.03053 0.0964623
